<svg width="24" height="25" viewBox="0 0 24 25" fill="none" xmlns="http://www.w3.org/2000/svg">
<g id="icon / jam-icons / outline &#38; logos / search">
<path id="Vector" d="M10.5 16.7036C11.2879 16.7036 12.0682 16.5484 12.7961 16.2469C13.5241 15.9454 14.1855 15.5034 14.7427 14.9463C15.2998 14.3891 15.7418 13.7277 16.0433 12.9997C16.3448 12.2718 16.5 11.4916 16.5 10.7036C16.5 9.9157 16.3448 9.13548 16.0433 8.40753C15.7418 7.67957 15.2998 7.01814 14.7427 6.46099C14.1855 5.90384 13.5241 5.46188 12.7961 5.16035C12.0682 4.85882 11.2879 4.70363 10.5 4.70363C8.90872 4.70363 7.38259 5.33577 6.25737 6.46099C5.13216 7.58621 4.50002 9.11233 4.50002 10.7036C4.50002 12.2949 5.13216 13.8211 6.25737 14.9463C7.38259 16.0715 8.90872 16.7036 10.5 16.7036ZM16.82 15.6096L20.4 19.1896C20.4955 19.2819 20.5716 19.3923 20.6239 19.5144C20.6762 19.6364 20.7037 19.7677 20.7048 19.9004C20.7058 20.0332 20.6804 20.1649 20.63 20.2877C20.5797 20.4106 20.5053 20.5222 20.4114 20.616C20.3174 20.7098 20.2057 20.784 20.0828 20.8342C19.9599 20.8844 19.8282 20.9096 19.6954 20.9084C19.5626 20.9071 19.4314 20.8794 19.3095 20.827C19.1875 20.7745 19.0772 20.6982 18.985 20.6026L15.405 17.0226C13.7975 18.2705 11.7748 18.8588 9.74877 18.6678C7.72273 18.4769 5.84562 17.5209 4.49957 15.9947C3.15351 14.4684 2.4397 12.4866 2.50344 10.4526C2.56718 8.41853 3.40368 6.48525 4.84266 5.04627C6.28164 3.6073 8.21492 2.7708 10.2489 2.70705C12.283 2.64331 14.2648 3.35712 15.7911 4.70318C17.3173 6.04923 18.2732 7.92634 18.4642 9.95238C18.6552 11.9784 18.0669 14.0011 16.819 15.6086L16.82 15.6096Z" fill="#0F172A"/>
</g>
</svg>
